<?xml version="1.0" encoding="UTF-8" standalone="no"?>
<!-- Created with Inkscape (http://www.inkscape.org/) -->

<svg
   xmlns:dc="http://purl.org/dc/elements/1.1/"
   xmlns:cc="http://creativecommons.org/ns#"
   xmlns:rdf="http://www.w3.org/1999/02/22-rdf-syntax-ns#"
   xmlns:svg="http://www.w3.org/2000/svg"
   xmlns="http://www.w3.org/2000/svg"
   xmlns:sodipodi="http://sodipodi.sourceforge.net/DTD/sodipodi-0.dtd"
   xmlns:inkscape="http://www.inkscape.org/namespaces/inkscape"
   width="118.72474mm"
   height="118.72474mm"
   viewBox="0 0 118.72474 118.72474"
   version="1.1"
   id="svg8"
   inkscape:version="0.92.4 (5da689c313, 2019-01-14)"
   sodipodi:docname="logo.svg">
  <defs
     id="defs2" />
  <sodipodi:namedview
     id="base"
     pagecolor="#ffffff"
     bordercolor="#666666"
     borderopacity="1.0"
     inkscape:pageopacity="0.0"
     inkscape:pageshadow="2"
     inkscape:zoom="1.1432432"
     inkscape:cx="491.88094"
     inkscape:cy="203.0603"
     inkscape:document-units="mm"
     inkscape:current-layer="layer1"
     showgrid="false"
     fit-margin-top="0"
     fit-margin-left="0"
     fit-margin-right="0"
     fit-margin-bottom="0"
     inkscape:window-width="1920"
     inkscape:window-height="1020"
     inkscape:window-x="0"
     inkscape:window-y="31"
     inkscape:window-maximized="1"
     inkscape:snap-global="false" />
  <metadata
     id="metadata5">
    <rdf:RDF>
      <cc:Work
         rdf:about="">
        <dc:format>image/svg+xml</dc:format>
        <dc:type
           rdf:resource="http://purl.org/dc/dcmitype/StillImage" />
        <dc:title></dc:title>
      </cc:Work>
    </rdf:RDF>
  </metadata>
  <g
     inkscape:label="Layer 1"
     inkscape:groupmode="layer"
     id="layer1"
     transform="translate(78.372826,-66.222885)">
    <rect
       style="opacity:1;vector-effect:none;fill:#ffffff;fill-opacity:0.98895024;fill-rule:evenodd;stroke:none;stroke-width:0.67322832;stroke-linecap:butt;stroke-linejoin:miter;stroke-miterlimit:4;stroke-dasharray:none;stroke-dashoffset:0;stroke-opacity:1;marker:none"
       id="rect36"
       width="118.72474"
       height="118.72474"
       x="-78.372826"
       y="66.222885"
       ry="1.0686074" />
    <path
       inkscape:connector-curvature="0"
       id="path77"
       d="m -52.664843,174.13528 c -6.178481,-1.33441 -11.454637,-5.71787 -13.784828,-11.4525 -1.470859,-3.61981 -1.442536,-2.89213 -1.442536,-37.06136 0,-27.78305 0.04978,-31.748743 0.42113,-33.546543 1.582536,-7.661548 7.318696,-13.397708 14.980243,-14.980244 1.797801,-0.371346 5.763495,-0.42113 33.546545,-0.42113 27.7744808,0 31.749141,0.04987 33.545221,0.420857 7.42127,1.532905 13.04365,6.962908 14.90583,14.395807 0.3,1.19748 0.36457,7.312663 0.36457,34.528133 v 33.07292 l -0.72083,2.11666 c -1.04441,3.06681 -2.43333,5.27075 -4.83546,7.67288 -2.40212,2.40212 -4.60606,3.79105 -7.67287,4.83546 l -2.11667,0.72083 -32.676041,0.0476 c -28.182679,0.0411 -32.928825,-0.007 -34.514304,-0.3494 z M -11.052936,161.085 c 12.9541378,-2.63989 22.783958,-12.15076 25.065838,-24.25254 0.66184,-3.51003 0.41642,-9.19154 -0.5357,-12.40166 -2.86335,-9.65391 -11.0343402,-17.05718 -20.3280202,-18.41805 -1.19438,-0.1749 -2.25403,-0.38863 -2.35479,-0.47497 -0.10075,-0.0863 -0.49261,-1.34761 -0.8707898,-2.80281 -0.784508,-3.01877 -0.71751,-4.21372 0.3043498,-5.42815 1.46268,-1.73828 3.90326,-1.54916 7.12889,0.55241 1.34498,0.8763 2.04571998,1.155 3.10298998,1.23417 2.60484002,0.19503 4.26959002,-1.46123 4.07569002,-4.05489 -0.14324,-1.916143 -0.99608,-3.125543 -3.23448,-4.586783 -4.61895,-3.01528 -10.43381,-3.48033 -14.4179778,-1.1531 -3.098043,1.80964 -5.496356,5.0657 -6.096534,8.276963 -0.324046,1.73381 -0.175655,3.04255 0.701489,6.18671 0.360614,1.29264 0.602361,2.48917 0.537213,2.65894 -0.06515,0.16977 -0.966893,0.64155 -2.003877,1.0484 -3.974048,1.55916 -7.904412,4.79454 -9.891213,8.1422 -2.22626,3.75113 -3.109143,9.14274 -2.20232,13.44917 2.103852,9.99106 12.098531,14.9103 20.855242,10.26466 4.7229378,-2.50563 7.7453678,-8.30529 7.2107778,-13.83654 -0.14574,-1.50802 -1.94077,-8.48621 -2.63042,-10.22584 -0.35104,-0.88546 0.49959,-0.7877 2.72011,0.31261 3.24472998,1.60782 6.41657,4.77076 7.95117,7.92886 1.47587,3.03722 1.89184,4.84358 1.89184,8.21535 0,10.82342 -8.09111,19.53315 -19.9039028,21.42568 -3.160199,0.50629 -8.258212,0.21213 -11.128629,-0.64215 -4.496433,-1.3382 -7.974452,-3.47194 -11.318812,-6.94399 -2.340618,-2.42999 -3.219024,-3.66769 -4.708562,-6.63449 -2.870896,-5.71813 -3.557003,-12.61478 -1.876272,-18.85999 1.180965,-4.38819 4.616252,-9.88153 7.969512,-12.74398 2.014895,-1.71998 5.186315,-3.73439 6.999156,-4.44568 3.163382,-1.2412 4.378277,-2.53141 4.378277,-4.6497 0,-2.38883 -1.671545,-3.926623 -4.277431,-3.935183 -1.210776,-0.004 -1.92599,0.22101 -4.257972,1.339433 -3.816125,1.83023 -6.513981,3.70696 -9.520864,6.62308 -4.208349,4.08131 -7.039671,8.52642 -8.817521,13.84328 -1.45815,4.36078 -1.826625,7.05244 -1.666131,12.17084 0.179054,5.71027 1.075827,9.4153 3.426161,14.15521 5.221232,10.52964 14.934089,17.61815 26.260285,19.16493 2.75308,0.37598 8.358431,0.13031 11.463228,-0.5024 z m -9.503385,-28.93022 c -1.329002,-0.69567 -2.719782,-2.55388 -3.175497,-4.24277 -0.163243,-0.60498 -0.247804,-2.11199 -0.187913,-3.34892 0.13775,-2.84497 0.968904,-4.77379 2.844179,-6.60036 1.677857,-1.63429 4.9824,-3.36416 5.474004,-2.86554 0.557689,0.56563 3.055172,9.20673 3.200772,11.07446 0.11001,1.41106 0.0274,1.98565 -0.43588,3.03304 -0.754101,1.70478 -1.217839,2.19064 -2.800341,2.93394 -1.719583,0.80769 -3.396655,0.81319 -4.919324,0.0161 z"
       style="fill:#e80404;stroke-width:0.26458335" />
    <path
       style="fill:#000000;stroke:none;stroke-width:0.26458332px;stroke-linecap:butt;stroke-linejoin:miter;stroke-opacity:1"
       d="m -45.393731,69.578658 30.780487,-2.545754 -11.571611,31.243349 13.6545,-3.471482 4.6286455,44.434989 23.3746545,-4.16578 -32.169079,49.06363 8.5629905,-29.16046 H -35.442146 l 5.091508,-36.56629 -23.14322,6.71153 z"
       id="path32"
       inkscape:connector-curvature="0"
       sodipodi:nodetypes="cccccccccccc" />
  </g>
</svg>
